<svg width="25" height="14" viewBox="0 0 25 14" fill="none" xmlns="http://www.w3.org/2000/svg">
<path d="M17.7424 10.106C17.4763 10.1059 17.2211 10 17.033 9.81172C16.8449 9.62343 16.7393 9.36813 16.7394 9.10199C16.7396 8.83584 16.8454 8.58065 17.0337 8.39255C17.222 8.20446 17.4773 8.09886 17.7435 8.09899C18.0096 8.09899 18.2648 8.20472 18.453 8.39291C18.6412 8.5811 18.747 8.83634 18.747 9.10249C18.747 9.36863 18.6412 9.62388 18.453 9.81207C18.2648 10.0003 18.0096 10.106 17.7435 10.106H17.7424ZM6.69845 10.106C6.56667 10.1059 6.43619 10.0799 6.31446 10.0294C6.19274 9.97892 6.08215 9.90495 5.98901 9.81172C5.80092 9.62343 5.69532 9.36813 5.69545 9.10199C5.69558 8.83584 5.80143 8.58065 5.98972 8.39255C6.17801 8.20446 6.4333 8.09886 6.69945 8.09899C6.96559 8.09899 7.22084 8.20472 7.40903 8.39291C7.59722 8.5811 7.70295 8.83634 7.70295 9.10249C7.70295 9.36863 7.59722 9.62388 7.40903 9.81207C7.22084 10.0003 6.96459 10.106 6.69845 10.106ZM18.0984 4.08799L20.1044 0.62899C20.1584 0.533379 20.1722 0.420244 20.1428 0.314474C20.1133 0.208703 20.0431 0.118961 19.9474 0.0649894C19.8518 0.0110179 19.7387 -0.00276192 19.6329 0.0266813C19.5272 0.0561245 19.4374 0.126379 19.3834 0.221989L17.3564 3.72199C15.7466 2.98617 13.9964 2.60815 12.2264 2.61399C10.3764 2.61399 8.63145 3.01199 7.08545 3.71199L5.05845 0.211989C5.03173 0.164713 4.99595 0.123164 4.95317 0.0897139C4.91039 0.0562635 4.86144 0.0315672 4.80911 0.0170349C4.75679 0.00250251 4.70211 -0.00158139 4.64821 0.00501667C4.5943 0.0116147 4.54223 0.0287654 4.49495 0.0554894C4.44767 0.0822134 4.40612 0.117987 4.37267 0.160769C4.33922 0.20355 4.31453 0.252501 4.29999 0.304827C4.28546 0.357153 4.28138 0.411829 4.28798 0.465733C4.29457 0.519637 4.31173 0.571713 4.33845 0.618989L6.33345 4.07699C2.90645 5.94699 0.555449 9.41699 0.210449 13.523H24.2104C23.8764 9.42699 21.5354 5.95799 18.0984 4.08799Z" fill="white"/>
</svg>
