<svg width="24" height="24" viewBox="0 0 24 24" fill="none" xmlns="http://www.w3.org/2000/svg">
<path d="M5.03396 11.117C4.08817 11.355 3.26184 11.9302 2.71021 12.7344C2.15859 13.5387 1.91964 14.5168 2.03827 15.4848C2.15689 16.4528 2.62492 17.3442 3.35443 17.9915C4.08393 18.6388 5.02469 18.9974 5.99996 19H17C17.706 18.9995 18.4039 18.8495 19.0478 18.5599C19.6917 18.2702 20.267 17.8475 20.7357 17.3195C21.2044 16.7915 21.556 16.1702 21.7673 15.4965C21.9787 14.8229 22.0449 14.1121 21.9617 13.4109C21.8786 12.7098 21.6478 12.0343 21.2848 11.4287C20.9217 10.8232 20.4345 10.3014 19.8552 9.89779C19.2759 9.49412 18.6177 9.21772 17.924 9.08676C17.2302 8.9558 16.5165 8.97327 15.83 9.138L14.5 9.5" stroke="#5D5D5D" stroke-width="2" stroke-linecap="round" stroke-linejoin="round"/>
<path d="M15.8299 9.13796C15.4881 7.78453 14.6445 6.6117 13.47 5.85722C12.2956 5.10274 10.8782 4.82305 9.50517 5.07487C8.13215 5.32668 6.90625 6.09115 6.07598 7.2133C5.2457 8.33545 4.87318 9.73133 5.03392 11.118C5.03392 11.118 5.18692 12 5.49992 12.5" stroke="#5D5D5D" stroke-width="2" stroke-linecap="round" stroke-linejoin="round"/>
</svg>
